<svg width="14" height="14" viewBox="0 0 14 14" fill="none" xmlns="http://www.w3.org/2000/svg">
<path d="M7.72917 8.16667C7.72917 9.21083 8.58083 10.0625 9.625 10.0625H12.25V10.5C12.25 11.6667 11.6667 12.25 10.5 12.25H3.5C2.33333 12.25 1.75 11.6667 1.75 10.5V2.91667C1.75 3.55833 2.275 4.08333 2.91667 4.08333H10.5C11.6667 4.08333 12.25 4.66667 12.25 5.83333V6.27083H9.625C8.58083 6.27083 7.72917 7.1225 7.72917 8.16667ZM9.625 7.14583C9.065 7.14583 8.60417 7.60667 8.60417 8.16667C8.60417 8.72667 9.065 9.1875 9.625 9.1875H12.25V7.14583H9.625ZM9.92834 8.75C9.60751 8.75 9.33917 8.4875 9.33917 8.16667C9.33917 7.84583 9.60167 7.58333 9.92251 7.58333H9.92834C10.2492 7.58333 10.5117 7.84583 10.5117 8.16667C10.5117 8.4875 10.2492 8.75 9.92834 8.75ZM8.75 1.75H3.35417C2.95167 1.75 2.625 2.07667 2.625 2.47917C2.625 2.88167 2.95167 3.20833 3.35417 3.20833H10.4825C10.395 2.23417 9.8175 1.75 8.75 1.75Z" fill="currentColor"/>
</svg>
