<svg width="32" height="32" viewBox="0 0 32 32" fill="none" xmlns="http://www.w3.org/2000/svg">
<path d="M25.3333 14.6667H17.3333V6.66671C17.3333 5.93071 16.736 5.33337 16 5.33337C15.264 5.33337 14.6667 5.93071 14.6667 6.66671V14.6667H6.66667C5.93067 14.6667 5.33334 15.264 5.33334 16C5.33334 16.736 5.93067 17.3334 6.66667 17.3334H14.6667V25.3334C14.6667 26.0694 15.264 26.6667 16 26.6667C16.736 26.6667 17.3333 26.0694 17.3333 25.3334V17.3334H25.3333C26.0693 17.3334 26.6667 16.736 26.6667 16C26.6667 15.264 26.0693 14.6667 25.3333 14.6667Z" fill="currentColor"/>
</svg>
