<svg width="14" height="14" viewBox="0 0 14 14" fill="none" xmlns="http://www.w3.org/2000/svg">
<path d="M9.52059 3.74795L10.0543 2.85835C10.2457 2.53868 10.2503 2.15423 10.0666 1.8299C9.88283 1.50556 9.55091 1.3125 9.17874 1.3125H4.82126C4.44851 1.3125 4.11659 1.50615 3.93343 1.8299C3.75026 2.15423 3.75434 2.53868 3.94626 2.85835L4.47941 3.74795C2.76499 5.32994 1.89584 7.01108 1.89584 8.75C1.89584 9.67342 2.26392 12.6875 7 12.6875C11.7361 12.6875 12.1042 9.67342 12.1042 8.75C12.1042 7.01108 11.2356 5.32994 9.52059 3.74795ZM4.69467 2.26099C4.71042 2.23357 4.74776 2.1875 4.82126 2.1875H9.17874C9.25224 2.1875 9.28958 2.23415 9.30533 2.26099C9.32108 2.2884 9.34151 2.34503 9.30359 2.40803L8.71208 3.3944H5.28792L4.69642 2.40803C4.6585 2.34503 4.67892 2.28899 4.69467 2.26099ZM7 11.8125C3.18325 11.8125 2.77084 9.67108 2.77084 8.75C2.77084 7.22283 3.59625 5.71664 5.21208 4.26997H8.78792C10.4043 5.71664 11.2292 7.22283 11.2292 8.75C11.2292 9.67108 10.8168 11.8125 7 11.8125ZM7.47717 7.83591L6.73926 7.64984C6.64592 7.62534 6.5666 7.57286 6.50593 7.49411C6.44818 7.42003 6.41667 7.32431 6.41667 7.22573C6.41667 6.98481 6.60626 6.78944 6.83959 6.78944H7.161C7.37625 6.78944 7.5565 6.95628 7.581 7.17795C7.60725 7.41828 7.82017 7.58976 8.06401 7.56468C8.30434 7.53843 8.477 7.32143 8.45075 7.08168C8.38775 6.51176 7.97125 6.06489 7.4375 5.94705V5.83333C7.4375 5.59183 7.2415 5.39583 7 5.39583C6.7585 5.39583 6.5625 5.59183 6.5625 5.83333V5.94591C5.97975 6.07483 5.54167 6.59864 5.54167 7.22573C5.54167 7.51798 5.63908 7.80381 5.81233 8.02781C5.98791 8.25823 6.23934 8.42451 6.52284 8.49743L7.26075 8.68349C7.45091 8.73249 7.58334 8.90694 7.58334 9.1076C7.58334 9.22427 7.53843 9.33451 7.45618 9.41793C7.37626 9.49959 7.27125 9.54389 7.16042 9.54389H6.839C6.62375 9.54389 6.4435 9.37705 6.419 9.15539C6.39217 8.91505 6.17925 8.74241 5.936 8.76866C5.69567 8.79491 5.523 9.01191 5.54925 9.25166C5.61225 9.82157 6.02875 10.2684 6.5625 10.3863V10.5C6.5625 10.7415 6.7585 10.9375 7 10.9375C7.2415 10.9375 7.4375 10.7415 7.4375 10.5V10.3874C7.679 10.3343 7.90126 10.2136 8.07976 10.0322C8.32359 9.78483 8.45834 9.45642 8.45834 9.10817C8.45834 8.50734 8.05583 7.98466 7.47717 7.83591Z" fill="currentColor"/>
</svg>
