<svg width="14" height="14" viewBox="0 0 14 14" fill="none" xmlns="http://www.w3.org/2000/svg">
<path d="M8.02083 8.16667C8.02083 8.40817 7.82483 8.60417 7.58333 8.60417H4.08333C3.84183 8.60417 3.64583 8.40817 3.64583 8.16667C3.64583 7.92517 3.84183 7.72917 4.08333 7.72917H7.58333C7.82483 7.72917 8.02083 7.92517 8.02083 8.16667ZM5.83333 9.47917H4.08333C3.84183 9.47917 3.64583 9.67517 3.64583 9.91667C3.64583 10.1582 3.84183 10.3542 4.08333 10.3542H5.83333C6.07483 10.3542 6.27083 10.1582 6.27083 9.91667C6.27083 9.67517 6.07483 9.47917 5.83333 9.47917ZM12.6875 6.70833V11.0833C12.6875 11.9682 11.9682 12.6875 11.0833 12.6875H3.5C2.0895 12.6875 1.3125 11.9105 1.3125 10.5V3.5C1.3125 2.0895 2.0895 1.3125 3.5 1.3125H8.16667C9.57717 1.3125 10.3542 2.0895 10.3542 3.5V5.39583H11.375C12.0989 5.39583 12.6875 5.98442 12.6875 6.70833ZM9.65476 11.8125C9.54276 11.5938 9.47917 11.3458 9.47917 11.0833V3.5C9.47917 2.58008 9.08658 2.1875 8.16667 2.1875H3.5C2.58008 2.1875 2.1875 2.58008 2.1875 3.5V10.5C2.1875 11.4199 2.58008 11.8125 3.5 11.8125H9.65476ZM11.8125 6.70833C11.8125 6.46683 11.6165 6.27083 11.375 6.27083H10.3542V11.0833C10.3542 11.4852 10.6814 11.8125 11.0833 11.8125C11.4852 11.8125 11.8125 11.4852 11.8125 11.0833V6.70833ZM4.45258 5.31181L4.99451 5.4518C5.08376 5.47514 5.14618 5.56264 5.14618 5.66414C5.14618 5.74581 5.10652 5.79895 5.08377 5.82287C5.0581 5.8497 5.01376 5.88175 4.95192 5.88175H4.71566C4.61882 5.88175 4.53424 5.79656 4.52258 5.68864C4.49633 5.44831 4.28343 5.2751 4.04018 5.30077C3.79985 5.32644 3.62658 5.5428 3.65224 5.78313C3.69949 6.2218 3.99701 6.57187 4.38842 6.70079V6.70833C4.38842 6.94983 4.58442 7.14583 4.82592 7.14583C5.06742 7.14583 5.26342 6.94983 5.26342 6.70833V6.70427C5.43084 6.65177 5.58542 6.56253 5.71317 6.43069C5.9115 6.22419 6.02057 5.95237 6.02057 5.66478C6.02057 5.16545 5.68985 4.73026 5.21443 4.60543L4.6719 4.46543C4.6194 4.45143 4.58557 4.41815 4.56399 4.39074C4.53657 4.35457 4.52026 4.30443 4.52026 4.25309C4.52026 4.13293 4.60715 4.03491 4.71448 4.03491H4.95075C5.04875 4.03491 5.13216 4.11778 5.14383 4.22803C5.1695 4.46836 5.38068 4.63981 5.62626 4.6159C5.86659 4.59023 6.03983 4.37387 6.01416 4.13353C5.96633 3.68962 5.66182 3.33666 5.26282 3.21182V3.2089C5.26282 2.9674 5.06682 2.7714 4.82532 2.7714C4.58382 2.7714 4.38782 2.9674 4.38782 3.2089V3.21766C3.95848 3.35941 3.64526 3.76718 3.64526 4.25309C3.64526 4.49518 3.72401 4.73202 3.86576 4.9181C4.01159 5.11118 4.21925 5.25114 4.45258 5.31181Z" fill="currentColor"/>
</svg>
