<svg width="445" height="445" viewBox="0 0 445 445" fill="none" xmlns="http://www.w3.org/2000/svg">
<circle cx="229.516" cy="220" r="199" fill="url(#paint0_linear_102_142)"/>
<circle cx="403.411" cy="113.911" r="9.91052" stroke="#7b74ff" stroke-width="4"/>
<circle cx="274.411" cy="410.911" r="9.91052" stroke="#7b74ff" stroke-width="4"/>
<g filter="url(#filter0_f_102_142)">
<path d="M85.5 234L88.8761 243.124L98 246.5L88.8761 249.876L85.5 259L82.1239 249.876L73 246.5L82.1239 243.124L85.5 234Z" fill="#7b74ff"/>
</g>
<path d="M403.08 290L408.099 303.562L421.661 308.58L408.099 313.599L403.08 327.161L398.062 313.599L384.5 308.58L398.062 303.562L403.08 290Z" fill="#7b74ff"/>
<g filter="url(#filter1_f_102_142)">
<path d="M143.892 35L149.94 51.344L166.284 57.3918L149.94 63.4396L143.892 79.7836L137.844 63.4396L121.5 57.3918L137.844 51.344L143.892 35Z" fill="#7b74ff"/>
</g>
<path d="M177.432 317.621C176.644 314.682 173.265 310.888 168.096 312.273L146.001 318.193C141.591 319.374 139.71 324.211 140.59 327.493C141.476 330.8 144.39 334.325 149.926 332.842L172.046 326.915C177.557 325.438 178.22 320.561 177.432 317.621ZM108.717 178.951L130.812 173.03C136.324 171.553 137.004 166.645 136.223 163.73C135.436 160.791 132.056 156.997 126.887 158.381L104.792 164.302C100.383 165.483 98.5016 170.319 99.3811 173.602C100.292 176.902 103.205 180.427 108.717 178.951Z" fill="#B5C0FF"/>
<path d="M275.588 94.9602C281.124 93.4772 288.113 97.5118 289.583 102.999L340.629 293.505C342.106 299.016 338.04 305.987 332.529 307.464L177.933 348.888C172.397 350.371 165.409 346.336 163.938 340.849L162.954 337.175L174.002 334.215C182.477 331.944 187.155 324.415 184.798 315.621C182.442 306.827 174.627 302.646 166.151 304.917L155.104 307.877L149.216 285.905L160.264 282.944C168.739 280.673 173.417 273.144 171.06 264.35C168.704 255.557 160.889 251.376 152.414 253.647L141.366 256.607L135.465 234.585L146.513 231.625C154.988 229.354 159.666 221.826 157.31 213.032C154.953 204.238 147.138 200.056 138.663 202.327L127.615 205.287L121.727 183.315L132.775 180.354C141.25 178.083 145.928 170.555 143.572 161.761C141.215 152.967 133.4 148.786 124.925 151.057L113.877 154.017L112.892 150.343C111.416 144.831 115.481 137.861 120.993 136.384L275.588 94.9602Z" fill="url(#paint1_linear_102_142)"/>
<path d="M136.206 281.54L158.301 275.62C163.813 274.143 164.493 269.235 163.712 266.32C162.925 263.38 159.545 259.586 154.376 260.971L132.281 266.892C127.872 268.073 125.991 272.909 126.87 276.192C127.781 279.492 130.694 283.017 136.206 281.54ZM122.462 230.245L144.557 224.325C150.069 222.848 150.755 217.964 149.968 215.025C149.18 212.085 145.801 208.291 140.632 209.676L118.536 215.597C114.127 216.778 112.246 221.614 113.126 224.897C114.036 228.197 116.95 231.722 122.462 230.245Z" fill="#B5C0FF"/>
<g filter="url(#filter2_d_102_142)">
<path d="M210.59 181.708L215.859 187.134C220.615 192.03 221.349 199.928 217.644 206.345C217.644 206.345 213.151 214.128 227.262 222.275C241.373 230.422 245.867 222.639 245.867 222.639C249.572 216.223 256.779 212.909 263.397 214.58L270.731 216.431C280.724 218.953 285.018 230.87 279.424 240.559C276.062 246.381 271.395 251.461 265.24 253.362C254.878 256.564 236.392 258.678 213.782 245.624C191.171 232.57 183.759 215.503 181.351 204.929C179.921 198.648 181.986 192.066 185.347 186.244C190.941 176.555 203.408 174.315 210.59 181.708Z" fill="white"/>
</g>
<g filter="url(#filter3_f_102_142)">
<path d="M370.37 108.601C368.211 103.982 365.125 99.8376 361.195 96.2829C357.281 92.7409 352.725 89.9612 347.654 88.0207C342.417 86.0166 336.855 85 331.125 85C325.395 85 319.833 86.0166 314.596 88.0207C309.526 89.9612 304.969 92.7433 301.055 96.2829C297.126 99.8376 294.039 103.982 291.88 108.601C289.65 113.339 288.496 118.513 288.5 123.75C288.5 134.619 293.478 144.902 302.223 152.235C299.438 155.883 295.418 159.19 289.441 162.776C289.078 162.994 288.796 163.325 288.639 163.719C288.481 164.112 288.457 164.546 288.57 164.955C288.684 165.363 288.927 165.723 289.265 165.979C289.602 166.236 290.014 166.375 290.438 166.375C296.337 166.375 301.76 165.788 306.557 164.631C310.646 163.644 314.297 162.241 317.426 160.453C321.864 161.817 326.482 162.507 331.125 162.5C336.855 162.5 342.417 161.483 347.654 159.479C352.724 157.542 357.281 154.757 361.194 151.217C365.124 147.662 368.211 143.518 370.37 138.899C372.595 134.159 373.749 128.987 373.749 123.75C373.749 118.513 372.595 113.341 370.37 108.601H370.37Z" fill="#FF4F75"/>
</g>
<path d="M370.37 108.601C368.211 103.982 365.125 99.8376 361.195 96.2829C357.281 92.7409 352.725 89.9612 347.654 88.0207C342.417 86.0166 336.855 85 331.125 85C325.395 85 319.833 86.0166 314.596 88.0207C309.526 89.9612 304.969 92.7433 301.055 96.2829C297.126 99.8376 294.039 103.982 291.88 108.601C289.65 113.339 288.496 118.513 288.5 123.75C288.5 134.619 293.478 144.902 302.223 152.235C299.438 155.883 295.418 159.19 289.441 162.776C289.078 162.994 288.796 163.325 288.639 163.719C288.481 164.112 288.457 164.546 288.57 164.955C288.684 165.363 288.927 165.723 289.265 165.979C289.602 166.236 290.014 166.375 290.438 166.375C296.337 166.375 301.76 165.788 306.557 164.631C310.646 163.644 314.297 162.241 317.426 160.453C321.864 161.817 326.482 162.507 331.125 162.5C336.855 162.5 342.417 161.483 347.654 159.479C352.724 157.542 357.281 154.757 361.194 151.217C365.124 147.662 368.211 143.518 370.37 138.899C372.595 134.159 373.749 128.987 373.749 123.75C373.749 118.513 372.595 113.341 370.37 108.601H370.37Z" fill="#F0142F" fill-opacity="0.866667"/>
<path fill-rule="evenodd" clip-rule="evenodd" d="M316.935 134.216C315.476 135.675 315.476 138.041 316.935 139.5C318.395 140.959 320.761 140.959 322.22 139.5L331.468 130.252L340.716 139.5C342.175 140.959 344.541 140.959 346 139.5C347.459 138.041 347.459 135.675 346 134.215L336.752 124.968L346 115.72C347.46 114.26 347.46 111.894 346 110.435C344.541 108.976 342.175 108.976 340.716 110.435L331.468 119.683L322.22 110.435C320.761 108.976 318.395 108.976 316.935 110.435C315.476 111.894 315.476 114.26 316.935 115.72L326.183 124.968L316.935 134.216Z" fill="white"/>
<defs>
<filter id="filter0_f_102_142" x="69" y="230" width="33" height="33" filterUnits="userSpaceOnUse" color-interpolation-filters="sRGB">
<feFlood flood-opacity="0" result="BackgroundImageFix"/>
<feBlend mode="normal" in="SourceGraphic" in2="BackgroundImageFix" result="shape"/>
<feGaussianBlur stdDeviation="2" result="effect1_foregroundBlur_102_142"/>
</filter>
<filter id="filter1_f_102_142" x="117.5" y="31" width="52.7837" height="52.7836" filterUnits="userSpaceOnUse" color-interpolation-filters="sRGB">
<feFlood flood-opacity="0" result="BackgroundImageFix"/>
<feBlend mode="normal" in="SourceGraphic" in2="BackgroundImageFix" result="shape"/>
<feGaussianBlur stdDeviation="2" result="effect1_foregroundBlur_102_142"/>
</filter>
<filter id="filter2_d_102_142" x="176.891" y="177.32" width="109.011" height="92.4619" filterUnits="userSpaceOnUse" color-interpolation-filters="sRGB">
<feFlood flood-opacity="0" result="BackgroundImageFix"/>
<feColorMatrix in="SourceAlpha" type="matrix" values="0 0 0 0 0 0 0 0 0 0 0 0 0 0 0 0 0 0 127 0" result="hardAlpha"/>
<feOffset dy="10"/>
<feGaussianBlur stdDeviation="2"/>
<feComposite in2="hardAlpha" operator="out"/>
<feColorMatrix type="matrix" values="0 0 0 0 0.24276 0 0 0 0 0.322208 0 0 0 0 0.7375 0 0 0 1 0"/>
<feBlend mode="normal" in2="BackgroundImageFix" result="effect1_dropShadow_102_142"/>
<feBlend mode="normal" in="SourceGraphic" in2="effect1_dropShadow_102_142" result="shape"/>
</filter>
<filter id="filter3_f_102_142" x="268.5" y="65" width="125.25" height="121.375" filterUnits="userSpaceOnUse" color-interpolation-filters="sRGB">
<feFlood flood-opacity="0" result="BackgroundImageFix"/>
<feBlend mode="normal" in="SourceGraphic" in2="BackgroundImageFix" result="shape"/>
<feGaussianBlur stdDeviation="10" result="effect1_foregroundBlur_102_142"/>
</filter>
<linearGradient id="paint0_linear_102_142" x1="229.516" y1="21" x2="229.516" y2="419" gradientUnits="userSpaceOnUse">
<stop stop-color="white" stop-opacity="0"/>
<stop offset="1" stop-color="#C0C7FF"/>
</linearGradient>
<linearGradient id="paint1_linear_102_142" x1="198.291" y1="115.672" x2="255.231" y2="328.176" gradientUnits="userSpaceOnUse">
<stop stop-color="#dde0ff"/>
<stop offset="1" stop-color="#7b74ff"/>
</linearGradient>
</defs>
</svg>
