<svg width="445" height="445" viewBox="0 0 445 445" fill="none" xmlns="http://www.w3.org/2000/svg">
<circle cx="229.516" cy="220" r="199" fill="url(#paint0_linear_102_142)"/>
<circle cx="403.411" cy="113.911" r="9.91052" stroke="#7b74ff" stroke-width="4"/>
<circle cx="274.411" cy="410.911" r="9.91052" stroke="#7b74ff" stroke-width="4"/>
<g filter="url(#filter0_f_102_142)">
<path d="M85.5 234L88.8761 243.124L98 246.5L88.8761 249.876L85.5 259L82.1239 249.876L73 246.5L82.1239 243.124L85.5 234Z" fill="#7b74ff"/>
</g>
<path d="M403.08 290L408.099 303.562L421.661 308.58L408.099 313.599L403.08 327.161L398.062 313.599L384.5 308.58L398.062 303.562L403.08 290Z" fill="#7b74ff"/>
<g filter="url(#filter1_f_102_142)">
<path d="M143.892 35L149.94 51.344L166.284 57.3918L149.94 63.4396L143.892 79.7836L137.844 63.4396L121.5 57.3918L137.844 51.344L143.892 35Z" fill="#7b74ff"/>
</g>
<path d="M167.692 184.769V318.239L186.909 306.552L206.127 318.239L225.345 306.552L244.56 318.239L263.78 306.552L282.996 318.239L302.211 306.552L321.431 318.239V154.514C321.431 143.655 312.645 134.85 301.801 134.85H148.066" fill="url(#paint1_linear_102_142)"/>
<path d="M128.439 234.023H167.691V152.765C167.691 142.871 159.688 134.853 149.813 134.853H146.314C136.442 134.853 128.436 142.871 128.436 152.765V234.023H128.439Z" fill="url(#paint2_linear_102_142)"/>
<path d="M321.436 253.911C322.385 253.91 323.294 253.532 323.963 252.861C324.633 252.19 325.009 251.28 325.008 250.332V154.514C325.008 141.696 314.603 131.27 301.811 131.27H148.066C135.275 131.27 124.867 141.699 124.867 154.514V211.559C124.866 212.508 125.242 213.417 125.912 214.089C126.581 214.76 127.49 215.138 128.439 215.139C129.387 215.138 130.296 214.76 130.966 214.089C131.636 213.417 132.011 212.508 132.011 211.559V154.514C132.011 145.644 139.212 138.43 148.064 138.43C156.915 138.43 164.117 145.647 164.117 154.514V230.44H132.013V224.657C132.014 223.708 131.638 222.799 130.968 222.127C130.299 221.456 129.39 221.078 128.441 221.077C127.493 221.079 126.583 221.457 125.913 222.129C125.243 222.8 124.867 223.71 124.867 224.659V234.023C124.866 234.971 125.242 235.881 125.912 236.552C126.581 237.223 127.49 237.601 128.439 237.603H164.12V318.239C164.12 318.872 164.289 319.495 164.608 320.042C164.928 320.589 165.388 321.041 165.939 321.352C166.491 321.664 167.116 321.823 167.75 321.813C168.383 321.804 169.003 321.627 169.545 321.299L186.909 310.74L204.273 321.299C205.412 321.991 206.84 321.991 207.981 321.299L225.345 310.74L242.709 321.299C243.847 321.991 245.275 321.991 246.417 321.299L263.78 310.74L281.144 321.299C282.283 321.991 283.708 321.991 284.852 321.299L302.216 310.74L319.577 321.299C320.119 321.63 320.739 321.809 321.374 321.82C322.008 321.83 322.634 321.67 323.186 321.356C323.738 321.045 324.197 320.591 324.516 320.044C324.836 319.496 325.004 318.873 325.003 318.239V263.432C325.003 261.455 323.405 259.852 321.431 259.852C319.457 259.852 317.859 261.455 317.859 263.432V311.881L304.067 303.494C303.509 303.153 302.867 302.973 302.213 302.973C301.559 302.973 300.918 303.153 300.359 303.494L282.998 314.053L265.634 303.494C265.076 303.153 264.435 302.973 263.78 302.973C263.126 302.973 262.485 303.153 261.927 303.494L244.563 314.053L227.201 303.494C226.643 303.153 226.002 302.973 225.347 302.973C224.693 302.973 224.052 303.153 223.494 303.494L206.127 314.053L188.763 303.494C188.205 303.153 187.564 302.973 186.911 302.973C186.257 302.973 185.616 303.153 185.058 303.494L171.266 311.881V154.514C171.266 148.276 168.796 142.608 164.791 138.43H301.814C310.666 138.43 317.864 145.647 317.864 154.514V250.332C317.864 251.28 318.24 252.19 318.909 252.861C319.579 253.532 320.488 253.91 321.436 253.911Z" fill="#7b74ff"/>
<rect x="189.5" y="177" width="38" height="10" rx="5" fill="white"/>
<rect x="234.5" y="177" width="59" height="10" rx="5" fill="white"/>
<rect x="189.5" y="201" width="61" height="10" rx="5" fill="url(#paint3_linear_102_142)"/>
<rect x="189.5" y="247" width="40" height="10" rx="5" fill="url(#paint4_linear_102_142)"/>
<rect x="189.5" y="224" width="99" height="10" rx="5" fill="url(#paint5_linear_102_142)"/>
<g filter="url(#filter2_f_102_142)">
<path d="M370.37 108.601C368.211 103.982 365.125 99.8376 361.195 96.2829C357.281 92.7409 352.725 89.9612 347.654 88.0207C342.417 86.0166 336.855 85 331.125 85C325.395 85 319.833 86.0166 314.596 88.0207C309.526 89.9612 304.969 92.7433 301.055 96.2829C297.126 99.8376 294.039 103.982 291.88 108.601C289.65 113.339 288.496 118.513 288.5 123.75C288.5 134.619 293.478 144.902 302.223 152.235C299.438 155.883 295.418 159.19 289.441 162.776C289.078 162.994 288.796 163.325 288.639 163.719C288.481 164.112 288.457 164.546 288.57 164.955C288.684 165.363 288.927 165.723 289.265 165.979C289.602 166.236 290.014 166.375 290.438 166.375C296.337 166.375 301.76 165.788 306.557 164.631C310.646 163.644 314.297 162.241 317.426 160.453C321.864 161.817 326.482 162.507 331.125 162.5C336.855 162.5 342.417 161.483 347.654 159.479C352.724 157.542 357.281 154.757 361.194 151.217C365.124 147.662 368.211 143.518 370.37 138.899C372.595 134.159 373.749 128.987 373.749 123.75C373.749 118.513 372.595 113.341 370.37 108.601H370.37Z" fill="#FF4F75"/>
</g>
<path d="M370.37 108.601C368.211 103.982 365.125 99.8376 361.195 96.2829C357.281 92.7409 352.725 89.9612 347.654 88.0207C342.417 86.0166 336.855 85 331.125 85C325.395 85 319.833 86.0166 314.596 88.0207C309.526 89.9612 304.969 92.7433 301.055 96.2829C297.126 99.8376 294.039 103.982 291.88 108.601C289.65 113.339 288.496 118.513 288.5 123.75C288.5 134.619 293.478 144.902 302.223 152.235C299.438 155.883 295.418 159.19 289.441 162.776C289.078 162.994 288.796 163.325 288.639 163.719C288.481 164.112 288.457 164.546 288.57 164.955C288.684 165.363 288.927 165.723 289.265 165.979C289.602 166.236 290.014 166.375 290.438 166.375C296.337 166.375 301.76 165.788 306.557 164.631C310.646 163.644 314.297 162.241 317.426 160.453C321.864 161.817 326.482 162.507 331.125 162.5C336.855 162.5 342.417 161.483 347.654 159.479C352.724 157.542 357.281 154.757 361.194 151.217C365.124 147.662 368.211 143.518 370.37 138.899C372.595 134.159 373.749 128.987 373.749 123.75C373.749 118.513 372.595 113.341 370.37 108.601H370.37Z" fill="#F0142F" fill-opacity="0.866667"/>
<path fill-rule="evenodd" clip-rule="evenodd" d="M316.935 134.216C315.476 135.675 315.476 138.041 316.935 139.5C318.395 140.959 320.761 140.959 322.22 139.5L331.468 130.252L340.716 139.5C342.175 140.959 344.541 140.959 346 139.5C347.459 138.041 347.459 135.675 346 134.215L336.752 124.968L346 115.72C347.46 114.26 347.46 111.894 346 110.435C344.541 108.976 342.175 108.976 340.716 110.435L331.468 119.683L322.22 110.435C320.761 108.976 318.395 108.976 316.935 110.435C315.476 111.894 315.476 114.26 316.935 115.72L326.183 124.968L316.935 134.216Z" fill="white"/>
<path d="M312.066 306.756L310.068 308.619L304.139 302.262L302.034 300.004L304.032 298.141L306.137 300.399L312.066 306.756Z" fill="#B7C2FF"/>
<path d="M306.137 300.399C305.818 300.722 305.49 301.038 305.157 301.35C304.824 301.661 304.483 301.967 304.139 302.26L302.034 300.002L304.037 298.139L306.137 300.399ZM312.387 307.055C312.068 307.377 311.74 307.694 311.407 308.006C311.074 308.317 310.733 308.623 310.389 308.916L308.284 306.658L310.287 304.795L312.387 307.055Z" fill="#5E73E4"/>
<path d="M314.426 277.107C314.195 283.622 312.037 289.923 308.227 295.213C304.417 300.503 299.124 304.545 293.018 306.829C286.912 309.113 280.265 309.536 273.919 308.045C267.572 306.554 261.81 303.215 257.359 298.451C251.395 292.055 248.216 283.552 248.52 274.812C248.824 266.072 252.587 257.811 258.982 251.846C272.275 239.445 293.184 240.171 305.585 253.468C308.549 256.628 310.856 260.344 312.374 264.402C313.891 268.459 314.589 272.778 314.426 277.107Z" fill="url(#paint6_linear_102_142)"/>
<path d="M308.268 276.905C308.027 283.845 305.101 290.421 300.108 295.248C295.115 300.075 288.443 302.775 281.499 302.781C281.182 302.781 280.863 302.776 280.543 302.765C278.878 302.707 277.222 302.497 275.595 302.136C272.498 301.448 269.55 300.21 266.891 298.48C265.053 297.282 263.367 295.864 261.872 294.259C257.078 289.05 254.538 282.156 254.808 275.082C255.078 268.008 258.135 261.328 263.311 256.499C268.488 251.67 275.365 249.085 282.441 249.308C289.517 249.53 296.217 252.543 301.08 257.687C302.152 258.836 303.122 260.075 303.979 261.391C305.711 264.048 306.951 266.995 307.641 270.09C308.139 272.326 308.349 274.616 308.268 276.905Z" fill="url(#paint7_linear_102_142)"/>
<path d="M290.342 261.619C286.009 259.16 280.877 258.522 276.074 259.846C271.271 261.169 267.19 264.346 264.729 268.677" stroke="white" stroke-width="15" stroke-linecap="round" stroke-linejoin="round"/>
<path d="M336.699 334.354C335.572 335.409 334.084 335.995 332.54 335.993H332.323C331.524 335.967 330.737 335.784 330.009 335.454C329.281 335.123 328.625 334.651 328.08 334.066L305.649 310.875L314.572 302.548L336.999 325.726C338.101 326.911 338.688 328.485 338.632 330.102C338.576 331.719 337.88 333.248 336.699 334.354Z" fill="#4D64DE"/>
<path d="M337.493 333.451C336.929 334.238 336.186 334.88 335.324 335.324C334.463 335.767 333.509 335.999 332.54 336H332.323C331.523 335.974 330.736 335.79 330.008 335.458C329.28 335.126 328.625 334.653 328.08 334.066L305.649 310.876L307.095 309.526L329.479 332.664C330.024 333.25 330.679 333.721 331.407 334.052C332.136 334.383 332.922 334.567 333.722 334.592H333.938C335.214 334.595 336.458 334.196 337.493 333.451Z" fill="#B5C0FF"/>
<path d="M314.446 305.294L335.568 326.416" stroke="white" stroke-width="3" stroke-linecap="round" stroke-linejoin="round"/>
<path d="M299.05 263.55C298.807 263.793 298.487 263.917 298.167 263.917C297.847 263.917 297.527 263.795 297.283 263.55L296.083 262.35V267.667C296.083 268.357 295.523 268.917 294.833 268.917C294.143 268.917 293.583 268.357 293.583 267.667V262.352L292.383 263.552C291.895 264.04 291.103 264.04 290.615 263.552C290.127 263.063 290.127 262.272 290.615 261.783L293.948 258.45C294.063 258.335 294.202 258.243 294.355 258.18C294.66 258.053 295.005 258.053 295.31 258.18C295.463 258.243 295.602 258.335 295.717 258.45L299.05 261.783C299.538 262.272 299.538 263.062 299.05 263.55ZM298.167 276C298.167 285.358 290.442 292.923 281.025 292.66C272.33 292.418 265.083 285.17 264.84 276.475C264.577 267.058 272.142 259.333 281.5 259.333C283.712 259.333 285.823 259.758 287.745 260.555C288.012 260.665 288.115 260.98 287.997 261.243C287.378 262.613 287.147 264.223 287.497 265.913C288.143 269.042 290.857 271.473 294.035 271.793C295.067 271.897 296.068 271.798 297.002 271.52C297.277 271.438 297.57 271.58 297.642 271.857C297.983 273.175 298.167 274.568 298.167 276ZM286.453 279.362C286.453 277.358 285.095 275.615 283.143 275.122L280.463 274.457C280.05 274.353 279.698 274.122 279.433 273.783C279.183 273.467 279.045 273.06 279.045 272.642C279.045 271.61 279.883 270.772 280.915 270.772H282.082C283.035 270.772 283.833 271.488 283.942 272.438C284.018 273.125 284.637 273.625 285.323 273.542C286.01 273.465 286.503 272.847 286.427 272.16C286.202 270.157 284.652 268.612 282.712 268.33V267.667C282.712 266.977 282.152 266.417 281.462 266.417C280.772 266.417 280.212 266.977 280.212 267.667V268.34C278.137 268.68 276.545 270.47 276.545 272.638C276.545 273.617 276.873 274.573 277.465 275.32C278.058 276.085 278.905 276.638 279.855 276.878L282.535 277.543C283.37 277.755 283.953 278.502 283.953 279.358C283.953 279.855 283.758 280.323 283.403 280.678C283.048 281.033 282.58 281.228 282.083 281.228H280.917C279.963 281.228 279.165 280.512 279.057 279.562C278.98 278.875 278.36 278.372 277.675 278.458C276.988 278.535 276.495 279.153 276.572 279.84C276.793 281.818 278.307 283.353 280.212 283.662V284.333C280.212 285.023 280.772 285.583 281.462 285.583C282.152 285.583 282.712 285.023 282.712 284.333V283.67C283.637 283.535 284.495 283.125 285.17 282.45C285.998 281.622 286.453 280.525 286.453 279.362Z" fill="#FFE582"/>
<defs>
<filter id="filter0_f_102_142" x="69" y="230" width="33" height="33" filterUnits="userSpaceOnUse" color-interpolation-filters="sRGB">
<feFlood flood-opacity="0" result="BackgroundImageFix"/>
<feBlend mode="normal" in="SourceGraphic" in2="BackgroundImageFix" result="shape"/>
<feGaussianBlur stdDeviation="2" result="effect1_foregroundBlur_102_142"/>
</filter>
<filter id="filter1_f_102_142" x="117.5" y="31" width="52.7837" height="52.7836" filterUnits="userSpaceOnUse" color-interpolation-filters="sRGB">
<feFlood flood-opacity="0" result="BackgroundImageFix"/>
<feBlend mode="normal" in="SourceGraphic" in2="BackgroundImageFix" result="shape"/>
<feGaussianBlur stdDeviation="2" result="effect1_foregroundBlur_102_142"/>
</filter>
<filter id="filter2_f_102_142" x="268.5" y="65" width="125.25" height="121.375" filterUnits="userSpaceOnUse" color-interpolation-filters="sRGB">
<feFlood flood-opacity="0" result="BackgroundImageFix"/>
<feBlend mode="normal" in="SourceGraphic" in2="BackgroundImageFix" result="shape"/>
<feGaussianBlur stdDeviation="10" result="effect1_foregroundBlur_102_142"/>
</filter>
<linearGradient id="paint0_linear_102_142" x1="229.516" y1="21" x2="229.516" y2="419" gradientUnits="userSpaceOnUse">
<stop stop-color="white" stop-opacity="0"/>
<stop offset="1" stop-color="#C0C7FF"/>
</linearGradient>
<linearGradient id="paint1_linear_102_142" x1="234.749" y1="134.85" x2="234.749" y2="318.239" gradientUnits="userSpaceOnUse">
<stop stop-color="#dde0ff"/>
<stop offset="0.808917" stop-color="#7b74ff"/>
</linearGradient>
<linearGradient id="paint2_linear_102_142" x1="148.064" y1="134.853" x2="148.064" y2="234.023" gradientUnits="userSpaceOnUse">
<stop stop-color="#7b74ff"/>
<stop offset="1" stop-color="#dde0ff"/>
</linearGradient>
<linearGradient id="paint3_linear_102_142" x1="189.5" y1="203" x2="254.5" y2="206" gradientUnits="userSpaceOnUse">
<stop stop-color="white"/>
<stop offset="1" stop-color="white" stop-opacity="0"/>
</linearGradient>
<linearGradient id="paint4_linear_102_142" x1="189.5" y1="249" x2="232.175" y2="250.292" gradientUnits="userSpaceOnUse">
<stop stop-color="white"/>
<stop offset="1" stop-color="white" stop-opacity="0"/>
</linearGradient>
<linearGradient id="paint5_linear_102_142" x1="189.5" y1="226" x2="294.627" y2="233.875" gradientUnits="userSpaceOnUse">
<stop stop-color="white"/>
<stop offset="1" stop-color="white" stop-opacity="0"/>
</linearGradient>
<linearGradient id="paint6_linear_102_142" x1="281.475" y1="243" x2="281.475" y2="308.919" gradientUnits="userSpaceOnUse">
<stop stop-color="#dde0ff"/>
<stop offset="1" stop-color="#7b74ff"/>
</linearGradient>
<linearGradient id="paint7_linear_102_142" x1="281.537" y1="249.294" x2="281.537" y2="302.781" gradientUnits="userSpaceOnUse">
<stop stop-color="#EFF2FF"/>
<stop offset="1" stop-color="white"/>
</linearGradient>
</defs>
</svg>
