<svg width="445" height="445" viewBox="0 0 445 445" fill="none" xmlns="http://www.w3.org/2000/svg">
<circle cx="229.516" cy="220" r="199" fill="url(#paint0_linear_102_208)"/>
<circle cx="403.411" cy="113.911" r="9.91052" stroke="#7b74ff" stroke-width="4"/>
<circle cx="234.5" cy="393.5" r="7.5" stroke="#7b74ff" stroke-width="4"/>
<circle cx="376.5" cy="206.5" r="7.5" stroke="#7b74ff" stroke-width="4"/>
<circle cx="37.9105" cy="191.911" r="11.9105" fill="url(#paint1_linear_102_208)"/>
<circle cx="220.528" cy="352.528" r="7.52842" stroke="#7b74ff" stroke-width="4"/>
<g filter="url(#filter0_f_102_208)">
<path d="M85.5 234L88.8761 243.124L98 246.5L88.8761 249.876L85.5 259L82.1239 249.876L73 246.5L82.1239 243.124L85.5 234Z" fill="#7b74ff"/>
</g>
<path d="M414.58 273L419.599 286.562L433.161 291.58L419.599 296.599L414.58 310.161L409.562 296.599L396 291.58L409.562 286.562L414.58 273Z" fill="#7b74ff"/>
<rect x="102" y="56" width="257" height="339" rx="24" fill="url(#paint2_linear_102_208)" stroke="#7B74FF" stroke-width="8"/>
<g filter="url(#filter1_f_102_208)">
<path d="M148.392 39L154.44 55.344L170.784 61.3918L154.44 67.4396L148.392 83.7836L142.344 67.4396L126 61.3918L142.344 55.344L148.392 39Z" fill="#7b74ff"/>
</g>
<rect x="140" y="115" width="143" height="12" rx="6" fill="url(#paint3_linear_102_208)"/>
<rect x="140" y="153" width="81" height="12" rx="6" fill="#7b74ff"/>
<rect x="140" y="191" width="170" height="12" rx="6" fill="url(#paint4_linear_102_208)"/>
<rect x="140" y="229" width="136" height="12" rx="6" fill="#7b74ff"/>
<rect x="140" y="267" width="136" height="12" rx="6" fill="#7b74ff"/>
<rect x="140" y="305" width="92" height="12" rx="6" fill="#7b74ff"/>
<circle cx="275.216" cy="292.216" r="58.3107" transform="rotate(-60 275.216 292.216)" fill="#F6F9FF" stroke="#7b74ff" stroke-width="14"/>
<rect x="318.826" y="328.341" width="18.9612" height="82.165" rx="9" transform="rotate(-60 318.826 328.341)" fill="#7b74ff"/>
<path fill-rule="evenodd" clip-rule="evenodd" d="M254.216 305.543C252.159 307.6 252.159 310.935 254.216 312.992C256.273 315.049 259.608 315.049 261.665 312.992L274.7 299.957L287.735 312.992C289.792 315.049 293.127 315.049 295.184 312.992C297.241 310.935 297.241 307.6 295.184 305.543L282.149 292.508L295.184 279.473C297.241 277.416 297.241 274.081 295.184 272.025C293.127 269.968 289.792 269.968 287.735 272.025L274.7 285.06L261.665 272.025C259.608 269.968 256.273 269.968 254.216 272.025C252.159 274.081 252.159 277.416 254.216 279.473L267.251 292.508L254.216 305.543Z" fill="#FF4F75"/>
<path d="M71.841 318.144C74.0717 318.742 74.8188 321.53 73.1858 323.163L62.1631 334.186C60.5301 335.819 57.7418 335.072 57.144 332.841L53.1094 317.784C52.5117 315.553 54.553 313.512 56.7837 314.109L71.841 318.144Z" fill="#7b74ff"/>
<defs>
<filter id="filter0_f_102_208" x="69" y="230" width="33" height="33" filterUnits="userSpaceOnUse" color-interpolation-filters="sRGB">
<feFlood flood-opacity="0" result="BackgroundImageFix"/>
<feBlend mode="normal" in="SourceGraphic" in2="BackgroundImageFix" result="shape"/>
<feGaussianBlur stdDeviation="2" result="effect1_foregroundBlur_102_208"/>
</filter>
<filter id="filter1_f_102_208" x="122" y="35" width="52.7837" height="52.7836" filterUnits="userSpaceOnUse" color-interpolation-filters="sRGB">
<feFlood flood-opacity="0" result="BackgroundImageFix"/>
<feBlend mode="normal" in="SourceGraphic" in2="BackgroundImageFix" result="shape"/>
<feGaussianBlur stdDeviation="2" result="effect1_foregroundBlur_102_208"/>
</filter>
<linearGradient id="paint0_linear_102_208" x1="229.516" y1="21" x2="229.516" y2="419" gradientUnits="userSpaceOnUse">
<stop stop-color="white" stop-opacity="0"/>
<stop offset="1" stop-color="#D9E8FF"/>
</linearGradient>
<linearGradient id="paint1_linear_102_208" x1="37.9105" y1="180" x2="37.9105" y2="203.821" gradientUnits="userSpaceOnUse">
<stop stop-color="#7b74ff"/>
<stop offset="1" stop-color="#7b74ff"/>
</linearGradient>
<linearGradient id="paint2_linear_102_208" x1="111.5" y1="64.5" x2="355" y2="387.5" gradientUnits="userSpaceOnUse">
<stop stop-color="#E3EBFF"/>
<stop offset="0.484375" stop-color="#F5F9FF"/>
<stop offset="0.973958" stop-color="#7b74ff"/>
</linearGradient>
<linearGradient id="paint3_linear_102_208" x1="140" y1="121" x2="283" y2="121" gradientUnits="userSpaceOnUse">
<stop stop-color="#7b74ff"/>
<stop offset="1" stop-color="#7b74ff" stop-opacity="0"/>
</linearGradient>
<linearGradient id="paint4_linear_102_208" x1="142.5" y1="197" x2="313" y2="197" gradientUnits="userSpaceOnUse">
<stop stop-color="#7b74ff"/>
<stop offset="1" stop-color="#7b74ff" stop-opacity="0"/>
</linearGradient>
</defs>
</svg>
