<svg width="445" height="445" viewBox="0 0 445 445" fill="none" xmlns="http://www.w3.org/2000/svg">
<circle cx="229.516" cy="220" r="199" fill="url(#paint0_linear_102_142)"/>
<circle cx="403.411" cy="113.911" r="9.91052" stroke="#7b74ff" stroke-width="4"/>
<circle cx="274.411" cy="410.911" r="9.91052" stroke="#7b74ff" stroke-width="4"/>
<g filter="url(#filter0_f_102_142)">
<path d="M85.5 234L88.8761 243.124L98 246.5L88.8761 249.876L85.5 259L82.1239 249.876L73 246.5L82.1239 243.124L85.5 234Z" fill="#7b74ff"/>
</g>
<path d="M403.08 290L408.099 303.562L421.661 308.58L408.099 313.599L403.08 327.161L398.062 313.599L384.5 308.58L398.062 303.562L403.08 290Z" fill="#7b74ff"/>
<g filter="url(#filter1_f_102_142)">
<path d="M143.892 35L149.94 51.344L166.284 57.3918L149.94 63.4396L143.892 79.7836L137.844 63.4396L121.5 57.3918L137.844 51.344L143.892 35Z" fill="#7b74ff"/>
</g>
<path d="M177.432 317.621C176.644 314.682 173.265 310.888 168.096 312.273L146.001 318.193C141.591 319.374 139.71 324.211 140.59 327.493C141.476 330.8 144.39 334.325 149.926 332.842L172.046 326.915C177.557 325.438 178.22 320.561 177.432 317.621ZM108.717 178.951L130.812 173.03C136.324 171.553 137.004 166.645 136.223 163.73C135.436 160.791 132.056 156.997 126.887 158.381L104.792 164.302C100.383 165.483 98.5016 170.319 99.3811 173.602C100.292 176.902 103.205 180.427 108.717 178.951Z" fill="#B5C0FF"/>
<mask id="path-8-outside-1_102_142" maskUnits="userSpaceOnUse" x="103.822" y="85.8566" width="245.952" height="272.115" fill="black">
<rect fill="white" x="103.822" y="85.8566" width="245.952" height="272.115"/>
<path d="M275.588 94.9602C281.124 93.4772 288.113 97.5118 289.583 102.999L340.629 293.505C342.106 299.016 338.04 305.987 332.529 307.464L177.933 348.888C172.397 350.371 165.409 346.336 163.938 340.849L162.954 337.175L174.002 334.215C182.477 331.944 187.155 324.415 184.798 315.621C182.442 306.827 174.627 302.646 166.151 304.917L155.104 307.877L149.216 285.905L160.264 282.944C168.739 280.673 173.417 273.144 171.06 264.35C168.704 255.557 160.889 251.376 152.414 253.647L141.366 256.607L135.465 234.585L146.513 231.625C154.988 229.354 159.666 221.826 157.31 213.032C154.953 204.238 147.138 200.056 138.663 202.327L127.615 205.287L121.727 183.315L132.775 180.354C141.25 178.083 145.928 170.555 143.572 161.761C141.215 152.967 133.4 148.786 124.925 151.057L113.877 154.017L112.892 150.343C111.416 144.831 115.481 137.861 120.993 136.384L275.588 94.9602Z"/>
</mask>
<path d="M275.588 94.9602C281.124 93.4772 288.113 97.5118 289.583 102.999L340.629 293.505C342.106 299.016 338.04 305.987 332.529 307.464L177.933 348.888C172.397 350.371 165.409 346.336 163.938 340.849L162.954 337.175L174.002 334.215C182.477 331.944 187.155 324.415 184.798 315.621C182.442 306.827 174.627 302.646 166.151 304.917L155.104 307.877L149.216 285.905L160.264 282.944C168.739 280.673 173.417 273.144 171.06 264.35C168.704 255.557 160.889 251.376 152.414 253.647L141.366 256.607L135.465 234.585L146.513 231.625C154.988 229.354 159.666 221.826 157.31 213.032C154.953 204.238 147.138 200.056 138.663 202.327L127.615 205.287L121.727 183.315L132.775 180.354C141.25 178.083 145.928 170.555 143.572 161.761C141.215 152.967 133.4 148.786 124.925 151.057L113.877 154.017L112.892 150.343C111.416 144.831 115.481 137.861 120.993 136.384L275.588 94.9602Z" fill="url(#paint1_linear_102_142)"/>
<path d="M275.588 94.9602L274.295 90.1306L274.294 90.1306L275.588 94.9602ZM289.583 102.999L294.413 101.705L294.413 101.705L289.583 102.999ZM340.629 293.505L345.459 292.211L340.629 293.505ZM332.529 307.464L333.823 312.294L333.823 312.293L332.529 307.464ZM163.938 340.849L159.109 342.143L163.938 340.849ZM162.954 337.175L161.66 332.345L156.83 333.639L158.124 338.469L162.954 337.175ZM174.002 334.215L175.296 339.044L175.296 339.044L174.002 334.215ZM184.798 315.621L189.628 314.327L189.628 314.327L184.798 315.621ZM166.151 304.917L164.857 300.088L164.857 300.088L166.151 304.917ZM155.104 307.877L150.274 309.172L151.568 314.001L156.398 312.707L155.104 307.877ZM149.216 285.905L147.922 281.075L143.092 282.369L144.386 287.199L149.216 285.905ZM160.264 282.944L161.558 287.774L161.558 287.774L160.264 282.944ZM171.06 264.35L175.89 263.056L175.89 263.056L171.06 264.35ZM152.414 253.647L151.119 248.817L151.119 248.817L152.414 253.647ZM141.366 256.607L136.536 257.901L137.83 262.731L142.66 261.437L141.366 256.607ZM135.465 234.585L134.171 229.755L129.341 231.049L130.635 235.879L135.465 234.585ZM146.513 231.625L147.807 236.454L147.807 236.454L146.513 231.625ZM157.31 213.032L162.139 211.738L162.139 211.738L157.31 213.032ZM138.663 202.327L137.368 197.498L137.368 197.498L138.663 202.327ZM127.615 205.287L122.785 206.582L124.079 211.411L128.909 210.117L127.615 205.287ZM121.727 183.315L120.433 178.485L115.603 179.779L116.898 184.609L121.727 183.315ZM132.775 180.354L134.069 185.184L134.069 185.184L132.775 180.354ZM143.572 161.761L148.401 160.467L148.401 160.467L143.572 161.761ZM124.925 151.057L123.631 146.227L123.631 146.227L124.925 151.057ZM113.877 154.017L109.047 155.311L110.341 160.141L115.171 158.847L113.877 154.017ZM112.892 150.343L108.063 151.637L108.063 151.637L112.892 150.343ZM275.588 94.9602L276.882 99.7899C278.085 99.4676 279.856 99.6861 281.617 100.7C283.381 101.715 284.441 103.126 284.754 104.293L289.583 102.999L294.413 101.705C293.255 97.3844 290.086 94.035 286.604 92.0319C283.12 90.027 278.627 88.9698 274.295 90.1306L275.588 94.9602ZM289.583 102.999L284.754 104.293L335.8 294.799L340.629 293.505L345.459 292.211L294.413 101.705L289.583 102.999ZM340.629 293.505L335.8 294.799C336.115 295.975 335.899 297.726 334.877 299.484C333.855 301.243 332.429 302.314 331.234 302.634L332.529 307.464L333.823 312.293C338.14 311.137 341.502 307.985 343.522 304.51C345.542 301.036 346.621 296.547 345.459 292.211L340.629 293.505ZM332.529 307.464L331.234 302.634L176.639 344.058L177.933 348.888L179.227 353.717L333.823 312.294L332.529 307.464ZM177.933 348.888L176.639 344.058C175.436 344.38 173.666 344.162 171.905 343.148C170.14 342.133 169.081 340.722 168.768 339.555L163.938 340.849L159.109 342.143C160.266 346.463 163.436 349.813 166.918 351.816C170.402 353.821 174.894 354.878 179.227 353.717L177.933 348.888ZM163.938 340.849L168.768 339.555L167.784 335.881L162.954 337.175L158.124 338.469L159.109 342.143L163.938 340.849ZM162.954 337.175L164.248 342.005L175.296 339.044L174.002 334.215L172.708 329.385L161.66 332.345L162.954 337.175ZM174.002 334.215L175.296 339.044C180.663 337.606 185.097 334.415 187.764 329.912C190.442 325.392 191.124 319.91 189.628 314.327L184.798 315.621L179.969 316.915C180.829 320.126 180.351 322.805 179.16 324.816C177.959 326.844 175.816 328.552 172.708 329.385L174.002 334.215ZM184.798 315.621L189.628 314.327C188.132 308.744 184.8 304.337 180.221 301.762C175.66 299.196 170.225 298.649 164.857 300.088L166.151 304.917L167.446 309.747C170.554 308.914 173.264 309.322 175.318 310.478C177.355 311.623 179.108 313.704 179.969 316.915L184.798 315.621ZM166.151 304.917L164.857 300.088L153.81 303.048L155.104 307.877L156.398 312.707L167.446 309.747L166.151 304.917ZM155.104 307.877L159.933 306.583L154.046 284.61L149.216 285.905L144.386 287.199L150.274 309.172L155.104 307.877ZM149.216 285.905L150.51 290.734L161.558 287.774L160.264 282.944L158.97 278.115L147.922 281.075L149.216 285.905ZM160.264 282.944L161.558 287.774C166.926 286.336 171.359 283.144 174.026 278.642C176.704 274.121 177.386 268.639 175.89 263.056L171.06 264.35L166.231 265.644C167.091 268.855 166.613 271.535 165.422 273.545C164.221 275.574 162.078 277.282 158.97 278.115L160.264 282.944ZM171.06 264.35L175.89 263.056C174.394 257.473 171.062 253.067 166.483 250.491C161.922 247.926 156.487 247.379 151.119 248.817L152.414 253.647L153.708 258.476C156.816 257.644 159.526 258.051 161.58 259.207C163.617 260.353 165.37 262.434 166.231 265.645L171.06 264.35ZM152.414 253.647L151.119 248.817L140.072 251.777L141.366 256.607L142.66 261.437L153.708 258.476L152.414 253.647ZM141.366 256.607L146.195 255.313L140.295 233.291L135.465 234.585L130.635 235.879L136.536 257.901L141.366 256.607ZM135.465 234.585L136.759 239.415L147.807 236.454L146.513 231.625L145.219 226.795L134.171 229.755L135.465 234.585ZM146.513 231.625L147.807 236.454C153.174 235.016 157.608 231.825 160.275 227.323C162.953 222.803 163.635 217.321 162.139 211.738L157.31 213.032L152.48 214.326C153.34 217.537 152.862 220.216 151.671 222.226C150.47 224.254 148.327 225.962 145.219 226.795L146.513 231.625ZM157.31 213.032L162.139 211.738C160.643 206.155 157.311 201.748 152.732 199.172C148.171 196.607 142.736 196.059 137.368 197.498L138.663 202.327L139.957 207.157C143.065 206.324 145.775 206.732 147.829 207.888C149.866 209.033 151.62 211.115 152.48 214.326L157.31 213.032ZM138.663 202.327L137.368 197.498L126.321 200.458L127.615 205.287L128.909 210.117L139.957 207.157L138.663 202.327ZM127.615 205.287L132.444 203.993L126.557 182.02L121.727 183.315L116.898 184.609L122.785 206.582L127.615 205.287ZM121.727 183.315L123.021 188.144L134.069 185.184L132.775 180.354L131.481 175.525L120.433 178.485L121.727 183.315ZM132.775 180.354L134.069 185.184C139.436 183.746 143.87 180.554 146.537 176.052C149.215 171.532 149.897 166.05 148.401 160.467L143.572 161.761L138.742 163.055C139.602 166.266 139.124 168.945 137.933 170.955C136.732 172.984 134.589 174.692 131.481 175.525L132.775 180.354ZM143.572 161.761L148.401 160.467C146.905 154.884 143.574 150.478 138.994 147.902C134.434 145.336 128.998 144.789 123.631 146.227L124.925 151.057L126.219 155.886C129.327 155.054 132.037 155.462 134.092 156.617C136.128 157.763 137.882 159.844 138.742 163.055L143.572 161.761ZM124.925 151.057L123.631 146.227L112.583 149.187L113.877 154.017L115.171 158.847L126.219 155.886L124.925 151.057ZM113.877 154.017L118.707 152.723L117.722 149.049L112.892 150.343L108.063 151.637L109.047 155.311L113.877 154.017ZM112.892 150.343L117.722 149.049C117.407 147.873 117.623 146.122 118.645 144.363C119.667 142.605 121.093 141.534 122.287 141.214L120.993 136.384L119.699 131.554C115.382 132.711 112.019 135.863 109.999 139.338C107.98 142.811 106.901 147.301 108.063 151.637L112.892 150.343ZM120.993 136.384L122.287 141.214L276.882 99.7899L275.588 94.9602L274.294 90.1306L119.699 131.554L120.993 136.384Z" fill="#7B74FF" mask="url(#path-8-outside-1_102_142)"/>
<path d="M136.206 281.54L158.301 275.62C163.813 274.143 164.493 269.235 163.712 266.32C162.925 263.38 159.545 259.586 154.376 260.971L132.281 266.892C127.872 268.073 125.991 272.909 126.87 276.192C127.781 279.492 130.694 283.017 136.206 281.54ZM122.462 230.245L144.557 224.325C150.069 222.848 150.755 217.964 149.968 215.025C149.18 212.085 145.801 208.291 140.632 209.676L118.536 215.597C114.127 216.778 112.246 221.614 113.126 224.897C114.036 228.197 116.95 231.722 122.462 230.245Z" fill="#B5C0FF"/>
<g filter="url(#filter2_d_102_142)">
<path d="M210.59 181.708L215.859 187.134C220.615 192.03 221.349 199.928 217.644 206.345C217.644 206.345 213.151 214.128 227.262 222.275C241.373 230.422 245.867 222.639 245.867 222.639C249.572 216.223 256.779 212.909 263.397 214.58L270.731 216.431C280.724 218.953 285.018 230.87 279.424 240.559C276.062 246.381 271.395 251.461 265.24 253.362C254.878 256.564 236.392 258.678 213.782 245.624C191.171 232.57 183.759 215.503 181.351 204.929C179.921 198.648 181.986 192.066 185.347 186.244C190.941 176.555 203.408 174.315 210.59 181.708Z" fill="white"/>
</g>
<g filter="url(#filter3_f_102_142)">
<path d="M370.37 108.601C368.211 103.982 365.125 99.8376 361.195 96.2829C357.281 92.7409 352.725 89.9612 347.654 88.0207C342.417 86.0166 336.855 85 331.125 85C325.395 85 319.833 86.0166 314.596 88.0207C309.526 89.9612 304.969 92.7433 301.055 96.2829C297.126 99.8376 294.039 103.982 291.88 108.601C289.65 113.339 288.496 118.513 288.5 123.75C288.5 134.619 293.478 144.902 302.223 152.235C299.438 155.883 295.418 159.19 289.441 162.776C289.078 162.994 288.796 163.325 288.639 163.719C288.481 164.112 288.457 164.546 288.57 164.955C288.684 165.363 288.927 165.723 289.265 165.979C289.602 166.236 290.014 166.375 290.438 166.375C296.337 166.375 301.76 165.788 306.557 164.631C310.646 163.644 314.297 162.241 317.426 160.453C321.864 161.817 326.482 162.507 331.125 162.5C336.855 162.5 342.417 161.483 347.654 159.479C352.724 157.542 357.281 154.757 361.194 151.217C365.124 147.662 368.211 143.518 370.37 138.899C372.595 134.159 373.749 128.987 373.749 123.75C373.749 118.513 372.595 113.341 370.37 108.601H370.37Z" fill="#FF4F75"/>
</g>
<path d="M370.37 108.601C368.211 103.982 365.125 99.8376 361.195 96.2829C357.281 92.7409 352.725 89.9612 347.654 88.0207C342.417 86.0166 336.855 85 331.125 85C325.395 85 319.833 86.0166 314.596 88.0207C309.526 89.9612 304.969 92.7433 301.055 96.2829C297.126 99.8376 294.039 103.982 291.88 108.601C289.65 113.339 288.496 118.513 288.5 123.75C288.5 134.619 293.478 144.902 302.223 152.235C299.438 155.883 295.418 159.19 289.441 162.776C289.078 162.994 288.796 163.325 288.639 163.719C288.481 164.112 288.457 164.546 288.57 164.955C288.684 165.363 288.927 165.723 289.265 165.979C289.602 166.236 290.014 166.375 290.438 166.375C296.337 166.375 301.76 165.788 306.557 164.631C310.646 163.644 314.297 162.241 317.426 160.453C321.864 161.817 326.482 162.507 331.125 162.5C336.855 162.5 342.417 161.483 347.654 159.479C352.724 157.542 357.281 154.757 361.194 151.217C365.124 147.662 368.211 143.518 370.37 138.899C372.595 134.159 373.749 128.987 373.749 123.75C373.749 118.513 372.595 113.341 370.37 108.601H370.37Z" fill="#F0142F" fill-opacity="0.866667"/>
<path fill-rule="evenodd" clip-rule="evenodd" d="M316.935 134.216C315.476 135.675 315.476 138.041 316.935 139.5C318.395 140.959 320.761 140.959 322.22 139.5L331.468 130.252L340.716 139.5C342.175 140.959 344.541 140.959 346 139.5C347.459 138.041 347.459 135.675 346 134.215L336.752 124.968L346 115.72C347.46 114.26 347.46 111.894 346 110.435C344.541 108.976 342.175 108.976 340.716 110.435L331.468 119.683L322.22 110.435C320.761 108.976 318.395 108.976 316.935 110.435C315.476 111.894 315.476 114.26 316.935 115.72L326.183 124.968L316.935 134.216Z" fill="white"/>
<defs>
<filter id="filter0_f_102_142" x="69" y="230" width="33" height="33" filterUnits="userSpaceOnUse" color-interpolation-filters="sRGB">
<feFlood flood-opacity="0" result="BackgroundImageFix"/>
<feBlend mode="normal" in="SourceGraphic" in2="BackgroundImageFix" result="shape"/>
<feGaussianBlur stdDeviation="2" result="effect1_foregroundBlur_102_142"/>
</filter>
<filter id="filter1_f_102_142" x="117.5" y="31" width="52.7837" height="52.7836" filterUnits="userSpaceOnUse" color-interpolation-filters="sRGB">
<feFlood flood-opacity="0" result="BackgroundImageFix"/>
<feBlend mode="normal" in="SourceGraphic" in2="BackgroundImageFix" result="shape"/>
<feGaussianBlur stdDeviation="2" result="effect1_foregroundBlur_102_142"/>
</filter>
<filter id="filter2_d_102_142" x="176.891" y="177.32" width="109.011" height="92.4619" filterUnits="userSpaceOnUse" color-interpolation-filters="sRGB">
<feFlood flood-opacity="0" result="BackgroundImageFix"/>
<feColorMatrix in="SourceAlpha" type="matrix" values="0 0 0 0 0 0 0 0 0 0 0 0 0 0 0 0 0 0 127 0" result="hardAlpha"/>
<feOffset dy="10"/>
<feGaussianBlur stdDeviation="2"/>
<feComposite in2="hardAlpha" operator="out"/>
<feColorMatrix type="matrix" values="0 0 0 0 0.24276 0 0 0 0 0.322208 0 0 0 0 0.7375 0 0 0 1 0"/>
<feBlend mode="normal" in2="BackgroundImageFix" result="effect1_dropShadow_102_142"/>
<feBlend mode="normal" in="SourceGraphic" in2="effect1_dropShadow_102_142" result="shape"/>
</filter>
<filter id="filter3_f_102_142" x="268.5" y="65" width="125.25" height="121.375" filterUnits="userSpaceOnUse" color-interpolation-filters="sRGB">
<feFlood flood-opacity="0" result="BackgroundImageFix"/>
<feBlend mode="normal" in="SourceGraphic" in2="BackgroundImageFix" result="shape"/>
<feGaussianBlur stdDeviation="10" result="effect1_foregroundBlur_102_142"/>
</filter>
<linearGradient id="paint0_linear_102_142" x1="229.516" y1="21" x2="229.516" y2="419" gradientUnits="userSpaceOnUse">
<stop stop-color="white" stop-opacity="0"/>
<stop offset="1" stop-color="#C0C7FF"/>
</linearGradient>
<linearGradient id="paint1_linear_102_142" x1="198.291" y1="115.672" x2="255.231" y2="328.176" gradientUnits="userSpaceOnUse">
<stop stop-color="#dde0ff"/>
<stop offset="1" stop-color="#7b74ff"/>
</linearGradient>
</defs>
</svg>
